<?xml version="1.0" encoding="utf-8"?>
<!-- Generator: Adobe Illustrator 16.0.4, SVG Export Plug-In . SVG Version: 6.00 Build 0)  -->
<!DOCTYPE svg PUBLIC "-//W3C//DTD SVG 1.1//EN" "http://www.w3.org/Graphics/SVG/1.1/DTD/svg11.dtd">
<svg version="1.1" id="Layer_1" xmlns="http://www.w3.org/2000/svg" xmlns:xlink="http://www.w3.org/1999/xlink" x="0px" y="0px"
	 width="64px" height="64px" viewBox="0 0 64 64" enable-background="new 0 0 64 64" xml:space="preserve">
<path fill="#FFFFFF" d="M32.877,1.616c1.28,0,2.559,0,3.838,0c0.041,0.1,0.075,0.28,0.126,0.286c0.397,0.04,0.822,0.136,1.192,0.04
	c0.441-0.115,0.796,0.148,1.157,0.213c1.19,0.213,2.386,0.465,3.568,0.759c1.846,0.458,3.268,1.668,4.904,2.488
	c1.223,0.613,2.192,1.613,3.46,2.169c0.593,0.26,1.088,0.755,1.609,1.167c1.403,1.109,2.791,2.238,4.208,3.331
	c0.11,0.085,0.345,0.088,0.356,0.266c0.063,1,0.972,1.45,1.419,2.203c0.855,1.444,1.628,2.941,2.51,4.36
	c0.637,1.024,1.255,2.031,1.657,3.16c0.394,1.108,0.27,2.315,0.669,3.443c0.2,0.568-0.02,1.272,0.049,1.904
	c0.071,0.653-0.336,1.399,0.331,1.951c-0.612,0.544,0.048,1.094,0.065,1.626c0.035,1.047-0.457,1.968-0.434,2.997
	c0.026,1.117,0.254,2.276-0.326,3.343c-0.01,2.281-1.237,4.168-2.247,6.036c-0.791,1.466-1.796,2.875-2.77,4.267
	c-0.26,0.371-0.719,0.63-0.897,1.025c-0.984,2.182-3.256,3.28-4.404,5.312c-1.208,0.63-2.038,1.74-3.157,2.482
	c-0.139,0.706-0.631-0.294-0.835,0.178c-0.302,0.692-0.959,0.917-1.584,1.21c-0.781,0.367-1.552,0.77-2.28,1.23
	c-3.106,1.966-6.449,3.187-10.156,3.271c-1.22,0.027-2.453-0.1-3.659,0.033c-1.197,0.131-2.368-0.57-3.552-0.032
	c-0.048,0.021-0.148,0.026-0.168,0c-0.375-0.525-0.742,0.025-1.111,0.023c-0.473-0.002-0.731-0.508-1.253-0.382
	c-1.258,0.303-2.434-0.49-3.689-0.334c-0.27,0.033-0.393-0.213-0.583-0.278c-1.174-0.398-2.34-0.896-3.553-1.09
	c-2.297-0.368-4.242-1.031-6.057-2.242c-1.054-0.703-2.079-1.489-2.765-2.507c-0.658-0.977-1.457-1.831-2.186-2.728
	c-0.673-0.828-1.168-1.825-2.052-2.48c-0.002-0.748-0.946-0.898-1.034-1.483c-0.165-1.102-0.844-1.983-1.098-3.045
	c-0.326-1.362-0.698-2.729-1.223-4.024c-0.506-1.246-0.765-2.514-0.846-3.833c-0.036-0.579-0.006-1.162-0.006-1.743
	c0-0.582,0-1.163,0-1.744c0-0.523,0.147-1.107-0.038-1.554c-0.228-0.553,0.714-0.968,0.062-1.461
	c0.365-0.377,0.132-0.886,0.284-1.334c0.176-0.522,0.041-1.149,0.041-1.73c0-0.116-0.048-0.299,0.007-0.339
	c0.768-0.555-0.105-1.627,0.69-2.162c-0.236-0.874,0.489-1.586,0.39-2.476c-0.054-0.485,0.227-1.061,0.492-1.516
	c0.683-1.167,1.313-2.359,1.923-3.565c0.218-0.432,0.302-1.072,0.783-1.22c0.745-0.229,0.921-0.937,1.241-1.415
	c0.388-0.581,0.853-1.036,1.35-1.475c0.132-0.117,0.32-0.098,0.474-0.336c1.217-1.906,3.269-2.953,4.821-4.529
	c0.365-0.37,0.776-0.91,1.281-1.052c0.941-0.265,1.532-1.092,2.4-1.367c0.922-0.292,1.521-1.179,2.402-1.337
	c0.941-0.168,1.558-1.142,2.599-0.91c1.257-0.767,2.675-1.137,4.057-1.566c0.459-0.143,1.088-0.6,1.357-0.392
	c0.73,0.565,0.813-0.431,1.167-0.367c0.944,0.172,1.734-0.462,2.651-0.387c0.693,0.056,1.395,0.021,2.092,0.004
	C32.782,1.955,32.917,1.837,32.877,1.616z M18.587,31.64c0.05,0.586,0.044,1.572,0.264,2.591c0.255,1.183,0.547,2.327,1.038,3.418
	c0.937,2.082,1.655,2.797,3.267,4.391c0.943,0.933,2.082,1.45,3.13,2.162c1.524,1.034,3.355,0.866,5.018,1.353
	c0.696,0.203,1.516,0.128,2.252,0.008c0.838-0.134,1.51,0.398,2.301,0.381c0.954-0.022,1.883-0.157,2.828-0.303
	c1.554-0.238,3.146-0.051,4.74-0.332c0.989-0.176,1.961-0.283,2.829-0.781c0.521-0.298,1.001-0.746,1.511-0.995
	c2.312-1.133,4.188-2.796,5.909-4.642c0.85-0.91,1.565-1.987,1.871-3.224c0.371-1.502,0.968-2.982,0.717-4.588
	c-0.018-0.11-0.029-0.249,0.021-0.337c0.737-1.302,0.131-2.708,0.325-4.05c-0.766-1.399-0.578-3.065-1.334-4.511
	c-0.361-0.692-0.764-1.424-1.026-2.182c-0.303-0.873-1.028-1.358-1.637-1.926c-0.603-0.562-0.976-1.323-1.656-1.797
	c-1.623-1.131-3.242-2.265-4.883-3.369c-0.397-0.267-0.87-0.42-1.308-0.625c-0.438-0.206-1.004-0.306-1.283-0.643
	c-0.366-0.441-0.865-0.097-1.249-0.436c-0.304-0.268-1.07-0.5-1.247-0.336c-0.621,0.579-0.88-0.261-1.379-0.215
	c-1.268,0.116-2.56-0.034-3.828,0.078c-0.448,0.04-0.857,0.153-1.284-0.039c-0.326,0.562-1.128,0.134-1.454,0.698
	c-0.772-0.302-1.021,0.597-1.626,0.707c-0.936,0.17-1.837,0.433-2.44,1.27c-0.164,0.227-0.484,0.202-0.728,0.35
	c-2.845,1.721-3.832,2.516-5.454,4.785c-1.143,1.598-2.062,3.31-2.696,5.161C19.255,26.109,18.462,28.577,18.587,31.64z
	 M36.365,35.282c-0.005,0.633,0.077,1.145,0.559,1.705c0.458,0.531,0.877,0.836,1.532,0.927c0.787,0.109,1.282-0.134,1.51-0.957
	c0.095-0.341,0.841-0.66,0.548-0.927c-0.51-0.464,0.086-0.657,0.055-0.974c-0.042-0.428,0.034-0.87-0.302-1.221
	c0.615-0.707,0.388-1.613,0.223-2.301c-0.202-0.84,0.103-1.563,0.067-2.337c-0.013-0.28,0.039-0.549-0.229-0.781
	c-0.298-0.258,0.129-0.565,0.095-0.699c-0.209-0.802,0.52-1.616-0.057-2.386c0.24-0.772-0.256-1.482-0.177-2.256
	c0.076-0.746-0.06-1.516,0.035-2.258c0.119-0.932-0.545-1.72-0.379-2.637c-0.46-0.11-0.207-0.733-0.813-0.918
	c-0.962-0.293-2.275,0.374-2.312,1.459c-0.022,0.638-0.005,1.276-0.005,1.914c0,0.696,0.273,1.604-0.064,2.038
	c-0.499,0.643-0.046,1.089-0.095,1.609c-0.059,0.632-0.222,1.271-0.167,1.892c0.082,0.94-0.379,1.95,0.312,2.822
	c-0.737,1.168-0.105,2.461-0.334,3.466C36.367,33.542,36.372,34.412,36.365,35.282z M32.527,23.486
	c-0.001-0.281-0.56-2.154-0.679-2.5c-0.068-0.199-0.001-0.58-0.277-0.501c-0.538,0.153-0.925-0.56-1.227-0.337
	c-0.556,0.412-1.382,0.757-1.285,1.659c0.044,0.414-0.43,0.762-0.234,1.007c0.351,0.441,0.154,0.881,0.207,1.315
	c0.187,1.569-0.364,3.191,0.346,4.728c0.065,0.141,0.068,0.383-0.012,0.506c-0.553,0.853,0.298,1.653,0.068,2.485
	c0.465,0.392,0.873,0.949,1.409,1.135c0.797,0.278,1.975-0.721,2.027-1.585c0.036-0.578,0.15-1.21-0.033-1.725
	c-0.193-0.545,0.214-1.052,0.012-1.45c-0.5-0.983-0.234-2-0.322-2.864C32.528,24.645,32.531,24.065,32.527,23.486z M44.107,30.396
	c0.056,1.182,1.018,1.439,2.213,0.916c0.258-0.113,0.489-0.212,0.709-0.389c0.32-0.258,0.385-0.715,0.633-0.939
	c0.484-0.439-0.279-0.515-0.137-0.827c0.154-0.34,0.625-0.757,0.33-1.038c-0.509-0.483,0.042-0.97-0.173-1.393
	c-0.308-0.604-0.15-1.239-0.128-1.848c0.035-0.98-0.265-1.813-0.689-2.677c-0.326-0.662-0.775-0.697-1.363-0.702
	c-0.574-0.005-0.928,0.138-1.141,0.758c-0.143,0.417-0.338,0.788-0.332,1.255c0.004,0.378,0.207,0.82-0.166,1.138
	c-0.591,0.502,0.458,0.817,0.162,1.161c-0.439,0.507-0.289,1.061-0.344,1.798C43.469,28.452,44.059,29.373,44.107,30.396z
	 M54.195,29.538c0.946-0.55,1.023-1.272,0.72-2.319c-0.209-0.724-0.736-0.787-1.169-1.038c-0.561-0.326-1.347-0.309-1.818-0.075
	c-0.531,0.264-1.2,0.742-1.238,1.516c-0.024,0.485-0.185,1.013,0.346,1.421c0.531,0.408,0.881,1.129,1.668,0.821
	C53.294,29.955,53.75,29.797,54.195,29.538z M26.1,27.082c-0.488-0.445-1.119-0.522-1.642-0.629
	c-0.748-0.154-1.494,0.974-1.595,2.103c-0.074,0.83,0.785,1.411,1.967,1.507c0.704,0.058,1.074-0.529,1.669-0.65
	c0.09-0.018,0.084-0.514,0.123-0.79C26.644,28.04,26.6,27.538,26.1,27.082z"/>
</svg>
